<?xml version="1.0" encoding="utf-8"?>
<!-- Generator: Adobe Illustrator 24.3.0, SVG Export Plug-In . SVG Version: 6.00 Build 0)  -->
<svg version="1.1" id="Layer_1" xmlns="http://www.w3.org/2000/svg" xmlns:xlink="http://www.w3.org/1999/xlink" x="0px" y="0px"
	 viewBox="0 0 783.8 973.3" style="enable-background:new 0 0 783.8 973.3;" xml:space="preserve">
<style type="text/css">
	.st0{fill:none;stroke:#5BD7DD;stroke-width:70;stroke-linecap:round;stroke-miterlimit:10;}
	.st1{fill:none;stroke:#6C5CE7;stroke-width:70;stroke-linecap:round;stroke-miterlimit:10;}
	.st2{fill:#5BD7DD;}
</style>
<g id="Layer_2_1_">
	<path class="st0" d="M174.2,392.3V230.1C187.2,117.2,284.5,32.6,395.4,35.1c106.4,2.5,197.5,84.5,211.1,192.6v156.5"/>
	<path class="st1" d="M144.1,397.1h495.6c60.2,0,109.1,48.8,109.1,109.1v323c0,60.2-48.8,109.1-109.1,109.1H144.1
		C83.8,938.3,35,889.4,35,829.2v-323C35,446,83.8,397.1,144.1,397.1z"/>
	<circle class="st2" cx="390.4" cy="629.7" r="86.6"/>
	<path class="st2" d="M433.7,724.4v32.5c-2.3,23.9-23.5,41.5-47.5,39.2c-20.6-2-36.9-18.1-39.1-38.7v-80.2h86.6V724.4z"/>
</g>
</svg>
