<?xml version="1.0" encoding="utf-8"?>
<!-- Generator: Adobe Illustrator 24.3.0, SVG Export Plug-In . SVG Version: 6.00 Build 0)  -->
<svg version="1.1" id="Layer_3" xmlns="http://www.w3.org/2000/svg" xmlns:xlink="http://www.w3.org/1999/xlink" x="0px" y="0px"
	 viewBox="0 0 246.3 285.5" style="enable-background:new 0 0 246.3 285.5;" xml:space="preserve">
<style type="text/css">
	.st0{fill:#6C5CE7;}
</style>
<path class="st0" d="M89.7,2.1C88.8,14.2,84,63.5,65.8,92.8c-1,1.5-3.3,1.1-3.7-0.7c-1.2-5.7-4-14.9-10.4-19.7
	c-0.9-0.7-2.2-0.4-2.8,0.6c-7.1,11.3-47.2,75.3-48.6,90c-1.6,16.2,2.6,68.3,30.3,91.3c27.3,22.7,62.2,29.1,77.7,31.2
	c0.4,0.1,0.8,0,1.2-0.2c2.4-1.2,10.5-6.4-0.1-13.5c-0.3-0.2-0.7-0.3-1.1-0.3c-4.4,0-32.6-1.5-39.8-34.6c0-0.1,0-0.2,0-0.2
	c-0.2-1.5-1.9-18,1.8-24.7c3.9-7,19.3-32.3,19-35.2c-0.2-2.4,4,1.4,5.9,7.2c0.5,1.5,2.5,1.8,3.5,0.5c6.2-8.4,21.3-29.7,21.7-38.9
	c0.1-1.2,1.2-2.1,2.4-1.9c0.9,0.2,2,0.7,3.3,2c3.2,3.2,18.7,16.5,25.9,48.4c0.4,1.6,2.5,2.1,3.5,0.8c2.5-3.2,6.6-7.5,11-8.6
	c1.2-0.3,2.3,0.6,2.4,1.8c0.3,4.6,1.3,15.4,4.7,19.6c0.1,0.1,0.2,0.3,0.3,0.5c0.8,2,5.8,15.1,4.6,24.3c-1.3,9.9-6.8,32.1-39.1,39.9
	l-2.8,0.6c-0.4,0.1-0.8,0.3-1,0.6c-1.5,1.6-5.5,7.1,1.2,11.4c0.4,0.2,0.8,0.3,1.2,0.3c4.8-0.3,36.3-2.7,62.2-19.8
	c28.2-18.5,39.7-47,39.7-47s11.4-22.4,3.7-52.5c0-0.1-0.1-0.2-0.1-0.3c-1-2.3-13.6-32.3-17.2-40c-3.6-8-6.5-10.3-7.5-33.4
	c0-0.8-0.6-1.6-1.3-1.8c-0.9-0.3-2.4-0.4-4.8,0.3c-0.3,0.1-0.5,0.2-0.7,0.3c-1.8,1.3-10.2,8.3-20.6,27c-0.9,1.6-3.2,1.3-3.7-0.4
	c-5.6-19.3-30.1-90.8-95-117.6C91.2-0.2,89.8,0.7,89.7,2.1z"/>
</svg>
