<?xml version="1.0" encoding="utf-8"?>
<!-- Generator: Adobe Illustrator 24.3.0, SVG Export Plug-In . SVG Version: 6.00 Build 0)  -->
<svg version="1.1" id="Layer_1" xmlns="http://www.w3.org/2000/svg" xmlns:xlink="http://www.w3.org/1999/xlink" x="0px" y="0px"
	 viewBox="0 0 723.5 938.8" style="enable-background:new 0 0 723.5 938.8;" xml:space="preserve">
<style type="text/css">
	.st0{fill:#6AC9D2;}
	.st1{fill:none;stroke:#6AC9D2;stroke-width:70;stroke-linecap:round;stroke-linejoin:round;}
	.st2{fill:none;stroke:#6561AB;stroke-width:70;stroke-linecap:round;stroke-linejoin:round;}
	.st3{fill:none;stroke:#6C5CE7;stroke-width:70;stroke-linecap:round;stroke-linejoin:round;}
</style>
<g id="Layer_1_1_">
	<path class="st0" d="M430.5,138.7c0,54.6-32,104-81.9,126.4c0-40.7,0-81.4,0-122.2c0-61,6.4-76.3-50.4-81.9H298
		c-57.2-5.4-64.5,47.8-64.5,47.8s0,72.3,0,155.3c-69.4-32.2-99.3-114.6-67.1-184.1S281.1-19.3,350.5,13
		C399.2,36,430.5,85,430.5,138.7L430.5,138.7z"/>
	<path class="st1" d="M98,41.5c0,0-59.3,91.1,0,192.3"/>
	<path class="st1" d="M486.5,41.5c0,0,59.3,91.1,0,192.3"/>
</g>
<g id="Layer_3">
	<path class="st2" d="M347,265.8l1.6-0.7c0,9.7,0,19.3,0,29c4-14.1,12.9-26.4,25.4-34.4c9.9-6.4,21.7-9.4,33.4-8.9
		c4.7,0.2,9.2,1.2,13.7,2.6c18.4,5.9,32.7,20.2,38.4,38.6v35.5c0,0,0.2-0.9,0.7-2.8c3.5-11.8,19.8-57,61.4-50.1
		c3.1,0.5,6.1,1.2,9.2,2.1c21.7,5.9,38.1,23.8,42.4,45.7c0.2,1.9,0.5,2.8,0.5,2.8v43.8c0,0,12.9-63.1,64-48.5
		c4.7,1.4,9.4,3.1,13.9,5.2c36.5,17.7,33.4,52.3,33.4,52.3s4.9,214.9,2.6,273.7c-2.4,58.8-37.9,148.5-37.9,148.5v103.6H298v-108
		c0,0-81.9-26.8-107.8-67.3C164.3,687.8,36.5,502.5,36.5,502.5s-11.5-67.8,29-86.4c10.8-4.9,25.2-6.4,44.7-2.1
		c0,0,10.1,7.3,112.3,109.7c0,0,9.4,12,11.5-5.9v-0.2c0.5-4,0.5-8.2,0.5-12.2c-0.5-19.3-0.7-138.9-0.9-241.7l0.5,0.2"/>
	<path class="st0" d="M367.4,767.1v136.7h-37.9v-108c0,0-91.8-26.8-120.9-67.3C179.6,688,36.4,502.8,36.4,502.8S23.6,435,69,416.4
		c0.8,18.4,3,40.7,10.3,51.8C92.3,489.4,247,689.4,247,689.4c13.5,14.8,30.1,27.1,48.4,36.5c14.5,7.3,27.8,11.1,47.9,23.5
		C351.9,755.1,359.9,761,367.4,767.1z"/>
	<path class="st0" d="M329,68.5c-23.7,9.2-32.3,43.1-32.3,43.1s5.6,338.9,0,374.5c-5.6,35.5-62.4,32.5-62.4,32.5l0,0v-0.2
		c0.5-4,0.8-8.2,0.5-12.2c-1.3-35.1-1.3-396.8-1.3-396.8s11.3-53.4,99.5-47.8h0.5C335.2,63.8,334.1,66.4,329,68.5z"/>
	<path class="st0" d="M438.3,253.3c-3.9,2.6-7.7,5.2-11.8,7.3c-16.7,9.2-28.3,24.7-30.9,42.4v79.8c-7.5,31.1-48.4,33.9-48.4,33.9
		V297.5l33.4-37.9c12.6-6.4,26.8-9.7,41.2-8.9C427.2,251.2,432.9,251.9,438.3,253.3z"/>
	<path class="st0" d="M542.8,284.6c-18.3,4.7-29.7,37.7-29.7,37.7v64.3c-19,36.2-52.7,32-52.7,32v-93.9c4.4-11.8,24.8-57,77.4-50.1
		c3.9,0.5,7.8,1.2,11.5,2.1C550.6,279.6,549.6,282.7,542.8,284.6z"/>
	<path class="st0" d="M676.4,325.5c-3.1,2.4-6.4,4.7-10,6.6c-41.7,23.1-35.6,58.1-35.6,58.1c-16.1,23.1-37.5,20.2-37.5,20.2h-20
		v-88.3c0.3,0.9,0.6,1.9,0.6,2.8v43.8c0,0,16.9-63.1,84.4-48.5C664.5,321.8,670.6,323.4,676.4,325.5z"/>
</g>
<g id="Layer_2_1_">
	<path class="st3" d="M348.6,294c0-50.4,0-100.7,0-151.1c0-75.6,6.4-76.5-50.6-81.9s-64.5,47.8-64.5,47.8s0,362,0.9,396.8
		s-12,18.4-12,18.4C120.3,421.8,110.2,414.3,110.2,414.3c-92-20.2-73.7,88.5-73.7,88.5s128,185,153.7,225.7
		c25.7,40.7,107.8,67.3,107.8,67.3v108h351.6V800.3c0,0,35.5-89.7,38.1-148.5c2.6-58.8-2.6-273.7-2.6-273.7s3.8-42.8-47.3-57.7
		c-51.1-14.8-64,48.5-64,48.5v-43.8c0,0-4.2-42.8-52-50.6c-47.8-7.8-62.1,53-62.1,53v-35.5c-7.3-23.1-27.8-39.3-52-41
		C381.1,249.5,356.1,267.4,348.6,294z"/>
</g>
</svg>
