<?xml version="1.0" encoding="utf-8"?>
<!-- Generator: Adobe Illustrator 24.3.0, SVG Export Plug-In . SVG Version: 6.00 Build 0)  -->
<svg version="1.1" id="Layer_1" xmlns="http://www.w3.org/2000/svg" xmlns:xlink="http://www.w3.org/1999/xlink" x="0px" y="0px"
	 viewBox="0 0 902.2 793.1" style="enable-background:new 0 0 902.2 793.1;" xml:space="preserve">
<style type="text/css">
	.st0{fill:none;stroke:#6C5CE7;stroke-width:50;stroke-miterlimit:10;}
	.st1{fill:none;stroke:#5BD7DD;stroke-width:50;stroke-miterlimit:10;}
	.st2{fill:none;stroke:#6C5CE7;stroke-width:50.0008;stroke-miterlimit:10.0002;}
</style>
<g id="Layer_2_1_">
	<path class="st0" d="M95.8,385.4c30,50.5,60,101.2,90.3,151.7"/>
	<path class="st0" d="M221.5,529.8c32.9-90.3,65.7-180.4,98.7-270.4"/>
	<path class="st0" d="M383.5,173.5c49.2-25.3,98.3-50.8,147.5-76.1"/>
	<path class="st0" d="M549.3,683c-19.8-67.3-39.5-134.7-59.3-201.8"/>
	<path class="st1" d="M255.5,550.1c60-30.7,120.2-61.7,180.3-92.5"/>
	<path class="st1" d="M774.5,440.2c-29.7-41.2-59.3-82.5-89-123.7"/>
	<path class="st0" d="M527.3,449.9c71.7,15.5,143.5,31.1,215.4,46.6"/>
</g>
<g id="Layer_1_1_">
	<circle class="st1" cx="333.4" cy="204.5" r="58.9"/>
	<circle class="st1" cx="213.7" cy="582" r="52.7"/>
	<circle class="st1" cx="573.2" cy="722.1" r="46"/>
	
		<ellipse transform="matrix(0.1602 -0.9871 0.9871 0.1602 -22.362 835.1167)" class="st0" cx="479.6" cy="430.7" rx="51.3" ry="51.3"/>
	<circle class="st0" cx="76.3" cy="338" r="51.3"/>
	<circle class="st0" cx="809.9" cy="497.6" r="67.3"/>
	<ellipse class="st2" cx="661.7" cy="277.5" rx="46" ry="46"/>
	<circle class="st0" cx="571.4" cy="72.5" r="47.5"/>
</g>
</svg>
