<?xml version="1.0" encoding="utf-8"?>
<!-- Generator: Adobe Illustrator 24.3.0, SVG Export Plug-In . SVG Version: 6.00 Build 0)  -->
<svg version="1.1" id="Layer_1" xmlns="http://www.w3.org/2000/svg" xmlns:xlink="http://www.w3.org/1999/xlink" x="0px" y="0px"
	 viewBox="0 0 1602.9 337" style="enable-background:new 0 0 1602.9 337;" xml:space="preserve">
<style type="text/css">
	.st0{fill:#FFFFFF;}
</style>
<path class="st0" d="M1602.9,315.5c-24.9,1.2-57.5,1.7-103-2.6c-134.1-12.5-133.6-48.7-220.9-47c-66.8,1.4-178.9,24.8-229.1,25.8
	c-7.7,0.2-15.1,0.1-15.1,0.1c-14.5-0.2-33.4-1.3-62.8-4.8c-36-4.3-54.1-6.4-74.4-12.9c-28.4-9.2-28.4-14.5-66.1-27
	c-32.3-10.7-47.7-11.9-59.1-11.7c-16.2,0.3-29,3.4-39,5.9c-21.1,5.2-29.2,10.4-49.6,17.6c0,0-24,8.5-54.3,14.1
	c-37.2,6.9-66.6,5.1-90.9,3.5c-39.7-2.6-70.7-9.7-100.4-16.4c-38-8.7-42.2-12.3-69.2-16c-35.9-5-63.8-2.4-74.9-2.6
	c-27.6-0.6-53.5,5.8-79,15.3c-28.4,10.6-55.8,23.2-83.6,35.1c-15.2,6.5-22.9,9.6-25.6,10.6C67.4,316.8-4.7,325.1-4.7,325.1
	c-0.4-47.9,0-164.3,0-171.2C-4.9,104-4.8,54-4.8,4c0-3,0.4-4,3.8-4c535,0.1,1070.1,0.1,1605.1,0L1602.9,315.5z"/>
</svg>
