<?xml version="1.0" encoding="utf-8"?>
<!-- Generator: Adobe Illustrator 24.3.0, SVG Export Plug-In . SVG Version: 6.00 Build 0)  -->
<svg version="1.1" id="Layer_1" xmlns="http://www.w3.org/2000/svg" xmlns:xlink="http://www.w3.org/1999/xlink" x="0px" y="0px"
	 viewBox="0 0 694.7 972.1" style="enable-background:new 0 0 694.7 972.1;" xml:space="preserve">
<style type="text/css">
	.st0{fill:#5BD7DD;}
	.st1{fill:#6C5CE7;}
</style>
<g id="Layer_2_1_">
	<g id="Layer_1-2">
		<path class="st0" d="M521,534.9H346.9c-11.1,0-20.1-9.1-20.1-20.1c0-11.1,9.1-20.1,20.1-20.1H521c11.1,0,20.1,9.1,20.1,20.1
			C541.2,525.9,532.1,534.9,521,534.9z"/>
		<path class="st0" d="M333.7,229c-1,0-2,0-2.8-0.2L171,205.9c-11.1-1-19.3-10.7-18.3-21.7c1-11.1,10.7-19.3,21.7-18.3
			c0.8,0,1.6,0.2,2.4,0.4l159.6,22.9c10.9,1.8,18.3,12.3,16.5,23.3C351.2,221.8,343.1,228.8,333.7,229L333.7,229z"/>
		<path class="st0" d="M439.7,395.2c-45.5,0-82.5-36.8-82.5-82.5c0-21.9,8.7-42.9,24.2-58.4l44.1-44.1c7.8-7.8,20.5-7.8,28.4,0
			l44.1,44.1c32.2,32.2,32.2,84.5,0,116.7C482.8,386.6,461.7,395.2,439.7,395.2L439.7,395.2z M439.7,252.7l-30,30
			c-16.5,16.5-16.5,43.3,0,60c16.5,16.7,43.3,16.5,60,0c16.5-16.5,16.5-43.3,0-60L439.7,252.7z"/>
		<path class="st1" d="M540.8,612.2c-8.3-13.5-12.5-29-12.5-44.7v-33.2c16.3-2.8,28-16.9,28.2-33.4v-50.5
			c0-18.3-15.9-32.8-34.2-32.8H345.5c-18.3,0-34.2,14.5-34.2,32.8v50.7c0.2,16.5,12.1,30.4,28.2,33.2v33.2
			c0,15.7-4.2,31.2-12.5,44.7L185.7,841.7c-24.8,40.3-12.3,93,27.8,117.7c13.5,8.5,29.2,12.9,45.1,12.7H609
			c47.3,0.2,85.7-38,85.7-85.3c0-15.9-4.4-31.6-12.7-45.1L540.8,612.2z M649.1,908.7c-8.1,14.5-23.3,23.3-39.9,23.1H258.8
			c-25.2,0-45.5-20.1-45.5-45.3c0-8.5,2.2-16.7,6.8-24l141.3-229.5c12.1-19.7,18.5-42.5,18.5-65.6v-38.8
			c-0.2-16.5-11.9-30.4-28.2-33.4v-37.4h164.6v37.4c-16.3,2.8-28.2,16.9-28.2,33.4v38.8c0,23.1,6.2,45.9,18.5,65.6l141.5,229.5
			C656.7,876.7,657.1,894.4,649.1,908.7L649.1,908.7z"/>
		<path class="st1" d="M383.4,190.2l54.3-20.9c10.3-4,15.5-15.7,11.5-26c-1-2.6-2.6-4.8-4.4-6.8L314.3,5.8
			c-8.1-7.8-20.7-7.6-28.6,0.2c-2,2-3.4,4.2-4.4,6.8l-20.9,54.3c-1.2,3-3,5.8-5.2,8.1L24.9,305.5c-33.2,33.2-33.2,86.9,0,120.2
			s86.9,33.2,120.2,0l0,0l230.1-230.3C377.5,193.2,380.2,191.4,383.4,190.2L383.4,190.2z M346.7,167L116.7,397.1
			C99.4,414.8,71,415,53.5,397.9c-17.7-17.3-17.9-45.7-0.8-63.2c0.2-0.2,0.4-0.4,0.8-0.8l230.1-230.1c6.2-6.2,11.3-13.9,14.3-22.1
			l9.9-25.6l86.7,86.7l-25.6,9.9C360.6,155.9,353,160.8,346.7,167z"/>
	</g>
</g>
</svg>
