<?xml version="1.0" encoding="utf-8"?>
<!-- Generator: Adobe Illustrator 25.2.1, SVG Export Plug-In . SVG Version: 6.00 Build 0)  -->
<svg version="1.1" id="Layer_1" xmlns="http://www.w3.org/2000/svg" xmlns:xlink="http://www.w3.org/1999/xlink" x="0px" y="0px"
	 viewBox="0 0 718.3 819.6" style="enable-background:new 0 0 718.3 819.6;" xml:space="preserve">
<style type="text/css">
	.st0{fill:#FFEAA7;}
	.st1{fill:#FAB1A0;}
	.st2{fill:#E17055;}
	.st3{fill:#A29BFE;}
	.st4{opacity:0.15;fill:#471630;enable-background:new    ;}
	.st5{opacity:0.25;fill:#FFFFFF;enable-background:new    ;}
	.st6{fill:#2D3436;}
	.st7{fill:#FFFFFF;}
	.st8{opacity:0.36;fill:#FEE9A6;enable-background:new    ;}
	.st9{fill:none;stroke:#2D3436;stroke-width:15;stroke-linecap:round;stroke-linejoin:round;}
</style>
<g id="Bread">
	<path class="st0" d="M702.1,756.8c-217.6,77-347.3,45.8-347.3,45.8s-133.3-2.8-209.5-23.7c-28.7-7.9-49.3-18.3-51.7-32.1
		c-8.6-50.4,16.4-171.2,4.5-229.9S85,308.1,85,308.1C-74.8,205.7,81.4,89.4,81.4,89.4c19.9-16.6,78.1-42.1,153.5-59.8
		C351.3,2.2,508.5-6.5,628.8,65.4c151.2,90.3,34,190.8,34,190.8s41.6,293.3,36.5,361.1S702.1,756.8,702.1,756.8z"/>
	<path class="st1" d="M145.2,778.9c-28.7-7.9-49.3-18.3-51.7-32.1c-8.6-50.4,16.4-171.2,4.5-229.9S85,308.1,85,308.1
		C-74.8,205.7,81.4,89.4,81.4,89.4c19.9-16.6,78.1-42.1,153.5-59.8l17.8,4.7c0,0-142.1,84.1-160.9,169.6c-2.8,12.7-2.9,25.5,0.6,38
		c5.7,20.2,20.7,39.7,48.8,57.4c0,0-27,376,28.7,419.7C198.8,741.6,174.9,763.3,145.2,778.9z"/>
	
		<ellipse transform="matrix(0.9373 -0.3484 0.3484 0.9373 -51.7094 38.0916)" class="st2" cx="80.1" cy="162.8" rx="12.4" ry="24.8"/>
	
		<ellipse transform="matrix(9.515080e-02 -0.9955 0.9955 9.515080e-02 -19.8778 217.3772)" class="st2" cx="109.6" cy="119.6" rx="16.3" ry="13"/>
	
		<ellipse transform="matrix(0.7071 -0.7071 0.7071 0.7071 -130.9147 102.0268)" class="st2" cx="57.7" cy="209" rx="10.1" ry="7.6"/>
	<ellipse transform="matrix(0.5 -0.866 0.866 0.5 -571.2458 485.4613)" class="st2" cx="134.8" cy="737.4" rx="8.2" ry="11"/>
	
		<ellipse transform="matrix(0.3281 -0.9446 0.9446 0.3281 -582.364 604.596)" class="st2" cx="133.8" cy="711.7" rx="11.5" ry="18"/>
	<circle class="st2" cx="655.5" cy="747" r="18.3"/>
	
		<ellipse transform="matrix(0.3269 -0.9451 0.9451 0.3269 -225.8285 1119.1093)" class="st2" cx="672.7" cy="718.1" rx="12.2" ry="10.1"/>
	
		<ellipse transform="matrix(0.5779 -0.8161 0.8161 0.5779 -292.7632 831.7318)" class="st2" cx="657.6" cy="698.9" rx="6.8" ry="8.6"/>
	
		<ellipse transform="matrix(0.4255 -0.905 0.905 0.4255 252.3405 656.6129)" class="st2" cx="643.3" cy="129.6" rx="24.6" ry="21.9"/>
	<circle class="st2" cx="674.3" cy="153.6" r="8.3"/>
</g>
<g id="Bread_Outline">
	<path class="st2" d="M624.6,72.5c-14.7-8.7-30.1-16.3-45.9-22.8c-15.9-6.4-32.2-11.7-48.8-16c-16.7-4.2-33.5-7.5-50.6-9.8
		c-17.1-2.4-34.2-3.8-51.5-4.4c-17.2-0.7-34.5-0.5-51.7,0.4s-34.5,2.4-51.6,4.5c-34.3,4.3-68.2,11-101.6,19.9
		c-8.3,2.2-16.6,4.6-24.9,7.1c-8.2,2.5-16.5,5.1-24.6,8c-16.2,5.6-32.3,11.8-47.7,19c-7.7,3.6-15.2,7.4-22.3,11.4
		c-3.5,2.1-7,4.2-10.1,6.4c-0.8,0.6-1.5,1.1-2.3,1.7l-1.2,0.9l-1.3,1c-1.5,1.2-3.1,2.5-4.6,3.8c-12.5,10.7-23.8,22.9-33.5,36.2
		c-9.6,13.2-17.3,27.6-21.2,42.5c-2,7.3-3,14.9-3,22.5c0,7.5,1.2,14.9,3.4,22.1c4.5,14.4,13,27.7,23.5,40
		c10.5,12.3,23.2,23.4,36.4,34.3l0,0c2.3,1.5,3.7,4,3.8,6.7v0.1c0.5,29.6,1.5,59.4,2.9,89c1.4,29.6,3.3,59.3,6.6,88.5
		c0.8,7.3,1.8,14.5,3,21.7c0.3,1.8,0.6,3.5,1,5.3l1.1,5.6c0.7,3.9,1.2,7.8,1.7,11.7c1.6,15.5,1.5,30.8,1.1,45.9
		c-1,30.2-3.9,60-6.1,89.5c-1.1,14.8-2.1,29.5-2.5,44.1c-0.2,7.3-0.2,14.5,0.2,21.6c0.2,3.5,0.5,7,0.9,10.4c0.1,0.8,0.2,1.7,0.3,2.5
		l0.2,1.2v0.3v0.1l0,0.2c0.2,0.8,0.6,1.5,1,2.2c1.4,2.1,3.1,3.9,5.2,5.3c2.5,1.9,5.2,3.5,8,4.9c6.2,3.1,12.6,5.6,19.1,7.7
		c13.8,4.3,27.9,7.7,42.1,10.2c28.8,5.3,58.1,8.5,87.6,11c14.7,1.2,29.5,2.2,44.2,3c14.8,0.8,29.6,1.4,44.2,1.8
		c0.7,0,1.5,0.1,2.2,0.3h0.2c0.6,0.1,1.5,0.3,2.3,0.5s1.7,0.3,2.5,0.5c1.7,0.3,3.4,0.6,5.2,0.8c3.5,0.5,7,1,10.5,1.4
		c7.1,0.8,14.2,1.4,21.4,1.9c14.4,0.9,28.8,1.2,43.3,1c29.1-0.6,58-3,86.8-7.2c14.4-2,28.8-4.6,43.1-7.4c7.1-1.5,14.3-3,21.4-4.7
		l10.7-2.5l10.6-2.7c14.1-3.6,28.2-7.8,42.1-12.1c3.5-1,6.9-2.3,10.4-3.4l10.4-3.5c6.9-2.4,13.8-4.9,20.6-7.4l0,0l-6.7,10.7
		c-0.6-5.4-1-10.6-1.4-16s-0.8-10.6-1.1-15.8c-0.6-10.6-1.2-21.1-1.4-31.7c-0.6-21.2-0.5-42.4,0.6-63.7c0.1-2.7,0.3-5.3,0.5-8
		l0.5-7.8c0.3-4.8,0.4-9.9,0.4-15c-0.1-10.2-0.5-20.6-1.1-30.9c-1.2-20.7-2.9-41.5-4.8-62.3c-3.9-41.6-8.4-83.2-13.3-124.8
		c-2.5-20.8-5-41.6-7.6-62.3l-4-31.2c-1.5-10.4-2.4-20.8-2.7-31.3l0,0c-0.3-0.7-0.2-1.5,0.1-2.1l2.1-3.8c0.2-0.4,0.6-0.9,0.9-1.4
		l1-1.5l2-2.9l3.9-5.9c2.6-3.9,5-7.8,7.3-11.8c4.6-7.7,8.7-15.7,12.3-23.9c1.7-4,3.2-8.1,4.4-12.2c1.2-4.1,2.1-8.3,2.7-12.5
		c1.2-8.3,1.1-16.8-0.4-25.1c-2.9-16.7-11.9-32.7-24.2-46.4c-6.2-7-13.1-13.4-20.4-19.1C640.6,82.7,632.7,77.3,624.6,72.5z
		 M633.1,58.2c8.6,5.2,17.1,10.7,25.3,16.7c2.1,1.5,4.1,3.1,6.1,4.6s4,3.2,6,4.8s3.9,3.3,5.8,5.1s3.8,3.5,5.7,5.3l2.8,2.7l2.7,2.9
		c1.8,1.9,3.5,3.9,5.3,5.9c3.4,4.1,6.6,8.4,9.5,12.9c2.9,4.6,5.5,9.4,7.8,14.3c2.3,5.1,4.1,10.3,5.4,15.7
		c2.7,10.9,3.4,22.2,2.1,33.3c-0.7,5.5-1.8,10.9-3.3,16.3c-1.6,5.2-3.5,10.3-5.7,15.3c-6.7,14.5-16.4,27.4-28.5,37.8
		c-2,1.7-4,3.3-6.2,4.9c-1,0.8-2.2,1.5-3.3,2.2l-1.7,1.1c-0.6,0.4-1.1,0.7-1.8,1.1l2.2-5.9l0,0c2.6,10.2,4.6,20.6,5.9,31l4.4,31.2
		c2.9,20.8,5.7,41.6,8.4,62.4s5.3,41.6,7.8,62.5c2.5,20.8,4.9,41.7,7,62.6s4,41.9,5.4,63c0.7,10.6,1.2,21.2,1.4,31.9
		c0.1,5.4,0,10.8-0.3,16.4l-0.5,7.9c-0.1,2.6-0.3,5.1-0.4,7.7c-0.9,20.6-1,41.3-0.3,62c0.3,10.4,0.9,20.7,1.5,31.1
		c0.3,5.2,0.7,10.3,1.1,15.5s0.9,10.4,1.4,15.4v0.2c0.5,4.6-2.3,9-6.7,10.5l0,0l-21.2,6.9c-7.1,2.2-14.2,4.5-21.3,6.6
		c-14.3,4.2-28.6,8.3-43,12c-28.8,7.4-58,13.8-87.5,18.6l-5.5,0.9l-5.5,0.8c-3.7,0.5-7.4,1.1-11.1,1.6l-11.1,1.4
		c-3.7,0.5-7.4,0.8-11.2,1.2c-14.9,1.5-29.8,2.5-44.8,3s-30,0.4-45.1-0.4c-7.5-0.4-15.1-1-22.7-1.9c-3.8-0.4-7.6-0.9-11.4-1.5
		c-1.9-0.3-3.8-0.6-5.7-1c-1-0.2-1.9-0.3-2.9-0.5s-1.9-0.4-3.1-0.7l2.3,0.3c-15.2-0.4-30-1.2-45-2.1s-29.9-2-44.8-3.3
		c-29.9-2.7-59.8-6.2-89.6-11.8c-15.1-2.8-30-6.5-44.6-11.1c-7.6-2.4-15.1-5.5-22.2-9.1c-3.8-2-7.5-4.3-10.9-6.9
		c-4-3-7.4-6.7-10.1-10.9c-1.5-2.5-2.7-5.2-3.3-8l-0.2-1.1l-0.1-0.6l-0.1-0.4l-0.2-1.5c-0.2-1-0.3-2-0.4-3c-0.5-4-0.8-8-1-11.9
		c-0.3-7.8-0.3-15.5,0-23.1c0.5-15.2,1.7-30.2,2.9-45.1c2.5-29.8,5.6-59.3,6.8-88.6c0.5-14.6,0.7-29.2-0.7-43.3
		c-0.3-3.5-0.8-7-1.4-10.4l-1-5.4c-0.4-1.9-0.7-3.8-1-5.7c-1.2-7.6-2.2-15.1-3-22.6c-3.1-30-4.6-59.9-5.8-89.8s-1.8-59.7-2-89.6
		l3.8,6.8l0,0c-8.2-4-16.1-8.6-23.6-13.8C49.2,296,42,290,35.4,283.5c-6.9-6.7-13-14.1-18.3-22.1c-5.4-8.3-9.6-17.3-12.5-26.8
		C1.6,225,0.1,215,0,204.9c0-9.9,1.3-19.8,4-29.4c2.6-9.3,6.1-18.3,10.6-26.9c4.4-8.4,9.4-16.4,15-24c5.5-7.5,11.5-14.6,17.9-21.3
		c6.4-6.7,13.1-13.1,20.2-19c1.8-1.5,3.6-2.9,5.6-4.5l1.3-1l1.4-1.1c0.9-0.7,2-1.4,3-2.2C83,72.7,87,70.3,91.1,68
		c8.1-4.6,16.3-8.5,24.6-12.2c16.5-7.3,33.3-13.5,50.3-19c8.5-2.8,17-5.4,25.6-7.8s17.2-4.7,25.8-6.8c34.5-8.5,69.6-14.6,104.9-18.3
		c17.7-1.8,35.4-3.1,53.2-3.6s35.6-0.4,53.3,0.6c35.5,1.9,71,6.9,105.5,16.2c17.3,4.6,34.3,10.3,50.8,17.1
		C601.6,41,617.7,49,633.1,58.2L633.1,58.2z"/>
</g>
<g id="Jelly">
	<path id="Main" class="st3" d="M331.9,705.8c0,0-306.4,141.3-170.4-188.6c0,0-66.5-36.7-0.6-229.5c0,0-93.9-147.8,21.5-177.7
		c6.2-1.6,12.4-2.8,18.7-3.5c9.5-1.2,19.1-1.8,28.8-1.7c0,0,32.2,4.4,57.8-6.3c18.2-7.6,22.2-24,38.8-36.3
		c5.9-4.3,12.5-7.7,19.5-9.8c2.7-0.9,5.7-1.7,8.8-2.4c0.1,0,0.3-0.1,0.4-0.1l0.9-0.2c4.2-0.9,8.5-1.5,12.8-1.8c0.5,0,1-0.1,1.5-0.1
		c0.8-0.1,1.5-0.1,2.3-0.1c6.7-0.3,13.4-0.3,20.1,0.2c42,2.8,92.8,19.7,123.8,45.3c0,0,47.1,2.6,67.1,7.8s44.4,15,58.4,39.2
		s15.4,44.6-5.9,83.7s-38.8,35.9-37.3,72.9c0,0,129.3,120.1,12.3,233c7.2,13.8,13.6,28,19,42.6l0,0c0,0,0,0.2,0.1,0.3v0.1
		c0,0.1,0.1,0.2,0.1,0.2l0,0c0,0,0,0.1,0,0.2s0.1,0.3,0.2,0.5c2.5,6.7,4.9,13.8,7.1,21.3C664.5,684.5,662.3,821.6,331.9,705.8z"/>
	<path id="Shade" class="st4" d="M331.9,705.8c0,0-306.4,141.3-170.4-188.6c0,0-66.5-36.7-0.6-229.5c0,0-93.9-147.8,21.5-177.7
		l18.7-3.5c0,0-55.8,70.6,6.6,187.8c-15.9,24.2-26.4,51.5-30.6,80.2c-9.9,69.2,21,122.3,31.2,138.3c-2.3,1.6-4.5,3.3-6.6,5.2
		c-38.1,33.2-60.6,115.5-18.3,155.7c33.5,31.8,101.6,31.2,147.6-15.2c11.1,7.3,22.8,13.6,34.8,19.1c41.8,18.7,80.8,22.6,107.9,22.6
		c18.4,1.9,36.8,2.2,55.3,1.1c21.7-1.3,37.1-2.3,55.7-9.6c11.2-4.4,29-11.3,40.5-25.5c16.8-20.7,14.8-51.2,10.9-71.6
		c-1.4-7.2-3.2-14.2-5.6-21.1c2.5,6.8,5,14.1,7.3,21.8C664.5,684.5,662.3,821.6,331.9,705.8z"/>
	<path id="Light" class="st5" d="M630.7,573.7c2.5,6.7,4.9,13.8,7.1,21.3c-0.6-0.2-1.2-0.4-1.7-0.7c-71.8-29.8-50.9-87.9-50.9-87.9
		s96.9-9.2-18.6-238.1c108.4-140.3-90.3-154.8-90.3-154.8C407.6,66.2,362,82.7,362,82.7c-2.9-1.1-30.1-11.8-35.5-20.7
		c5.9-4.3,12.5-7.7,19.5-9.8c2.7-0.9,5.7-1.7,8.8-2.4c0.1,0,0.3-0.1,0.4-0.1l0.9-0.2c3.5-0.7,7.8-1.4,12.8-1.8c0.5,0,1-0.1,1.5-0.1
		c0.8-0.1,1.5-0.1,2.3-0.1c6.7-0.3,13.4-0.3,20.1,0.2c42,2.8,92.7,19.7,123.8,45.3c0,0,47.1,2.6,67.1,7.8s44.4,15,58.4,39.2
		s15.4,44.6-5.9,83.7s-38.8,35.9-37.3,72.9c0,0,129.3,120.1,12.3,233c7.2,13.8,13.6,28,19,42.6l0,0c0,0,0,0.2,0.1,0.3v0.1
		c0,0.1,0.1,0.2,0.1,0.2l0,0c0,0,0,0.1,0,0.2S630.7,573.5,630.7,573.7z"/>
	
		<ellipse transform="matrix(0.9373 -0.3484 0.3484 0.9373 -29.4406 110.1793)" class="st4" cx="291.6" cy="136.9" rx="22.7" ry="13.3"/>
	<ellipse transform="matrix(0.4255 -0.905 0.905 0.4255 -78.4753 359.6029)" class="st4" cx="244" cy="241.6" rx="14.1" ry="18.2"/>
	
		<ellipse transform="matrix(0.7531 -0.6579 0.6579 0.7531 -107.9344 312.5256)" class="st4" cx="362.4" cy="300.1" rx="19" ry="11.5"/>
	
		<ellipse transform="matrix(0.9042 -0.427 0.427 0.9042 -31.0574 196.0701)" class="st4" cx="421.6" cy="167.3" rx="14.1" ry="21.8"/>
	
		<ellipse transform="matrix(0.9042 -0.427 0.427 0.9042 -36.3059 246.6307)" class="st4" cx="531.7" cy="204.3" rx="14.1" ry="17.9"/>
	<circle class="st4" cx="381.4" cy="492" r="14.1"/>
	
		<ellipse transform="matrix(0.7531 -0.6579 0.6579 0.7531 -152.1135 495.3322)" class="st4" cx="583.9" cy="450.3" rx="14.1" ry="11.5"/>
	
		<ellipse transform="matrix(0.2709 -0.9626 0.9626 0.2709 -341.568 628.2048)" class="st4" cx="243.9" cy="539.6" rx="20" ry="14.1"/>
	
		<ellipse transform="matrix(0.9373 -0.3484 0.3484 0.9373 -137.2174 131.0574)" class="st4" cx="295.8" cy="447" rx="14.1" ry="21.1"/>
	<ellipse transform="matrix(0.9865 -0.164 0.164 0.9865 -102.5822 48.7497)" class="st4" cx="243.9" cy="645.6" rx="19.3" ry="16"/>
	<ellipse transform="matrix(0.5 -0.866 0.866 0.5 -6.1519 578.3836)" class="st4" cx="497.8" cy="294.5" rx="14.1" ry="21.4"/>
	
		<ellipse transform="matrix(0.3269 -0.9451 0.9451 0.3269 -107.3258 759.8295)" class="st4" cx="479.7" cy="455.3" rx="17.4" ry="12.3"/>
	
		<ellipse transform="matrix(9.515080e-02 -0.9955 0.9955 9.515080e-02 -91.2768 1015.5047)" class="st4" cx="513" cy="558" rx="12.1" ry="19.6"/>
	<circle class="st4" cx="523.8" cy="674.6" r="14.1"/>
	
		<ellipse transform="matrix(0.9865 -0.164 0.164 0.9865 -92.4386 70.6136)" class="st4" cx="381.4" cy="595.1" rx="10.3" ry="20.2"/>
</g>
<g id="Face">
	<circle class="st6" cx="272.2" cy="335.9" r="36.4"/>
	<circle class="st7" cx="280.2" cy="324.6" r="11.4"/>
	<circle class="st6" cx="523.5" cy="336.5" r="36.4"/>
	<circle class="st7" cx="531.6" cy="325.2" r="11.4"/>
	<ellipse class="st8" cx="226.5" cy="409.2" rx="38.5" ry="23.8"/>
	<ellipse class="st8" cx="565.4" cy="411.6" rx="38.5" ry="23.8"/>
	<path class="st9" d="M368.6,367.1c0,0,26,35.4,63.4,4.7"/>
</g>
</svg>
