<?xml version="1.0" encoding="utf-8"?>
<!-- Generator: Adobe Illustrator 24.3.0, SVG Export Plug-In . SVG Version: 6.00 Build 0)  -->
<svg version="1.1" id="Layer_1" xmlns="http://www.w3.org/2000/svg" xmlns:xlink="http://www.w3.org/1999/xlink" x="0px" y="0px"
	 viewBox="0 0 5120 1760.7" style="enable-background:new 0 0 5120 1760.7;" xml:space="preserve">
<style type="text/css">
	.st0{fill:url(#SVGID_1_);}
	.st1{fill:url(#SVGID_2_);}
	.st2{fill:url(#SVGID_3_);}
	.st3{fill:#FFFFFF;}
</style>
<linearGradient id="SVGID_1_" gradientUnits="userSpaceOnUse" x1="258.6339" y1="-448.3451" x2="4861.043" y2="2208.8508">
	<stop  offset="0.25" style="stop-color:#6C5CE7"/>
	<stop  offset="0.75" style="stop-color:#F178A5"/>
</linearGradient>
<path class="st0" d="M-0.2-0.1v1760.7h5120c0-95.2,0-190.3,0-285.5v-87.6c0-117.9,0-235.8,0-353.7c0-344.6,0.1-689.2,0.1-1033.8
	C3413.3,0,1706.6-0.1-0.2-0.1z M3840.6,1033.7v-0.9h1279.2v0.9H3840.6z"/>
<linearGradient id="SVGID_2_" gradientUnits="userSpaceOnUse" x1="3653.918" y1="1475.13" x2="3653.918" y2="1032.8649">
	<stop  offset="0" style="stop-color:#A29BFE"/>
	<stop  offset="1" style="stop-color:#74B9FF"/>
</linearGradient>
<path class="st1" d="M5120,1033.8c0,117.9,0,235.8-0.1,353.7c0,29.2,0,58.4,0,87.7H2187.8v-442.2c652.2,0,1304.4-0.1,1956.6,0
	c131.5,0,469.8,0.1,914.6,0.8C5062.1,1033.7,5116.9,1033.8,5120,1033.8L5120,1033.8z"/>
<linearGradient id="SVGID_3_" gradientUnits="userSpaceOnUse" x1="3633.645" y1="1033.77" x2="3633.645" y2="126.9209">
	<stop  offset="0" style="stop-color:#00ADEE"/>
	<stop  offset="1" style="stop-color:#6C5CE7"/>
</linearGradient>
<path class="st2" d="M5120,1033.8c-990.9-0.3-1981.8-0.6-2972.7-0.9c0,0,18,0,46.5-5.1c109-19.3,371.6-112.5,371.6-561.6
	c0-120.3,12.7-223,78.1-283c62.3-57.1,148.6-56.4,181.9-56.3c196.2,0.9,1076.7,0.2,2294.6,5.2C5120,432.7,5120,733.2,5120,1033.8z"
	/>
<path class="st3" d="M5119.9,1387.5c0,29.2,0,58.4,0,87.7h0c0,95.2,0,190.3,0,285.5H0c0-0.1-0.1-0.1-0.1-0.2V788.8
	c194.5,96.4,355.4,123.4,464.7,130.7c166.8,11.1,252.3-21.2,540-21.9c0,0,71.9-0.2,311.8,17.3c10.9,0.8,38.3,4,73.8,9.6
	c17,2.7,37.7,7.3,64.6,16c82.7,26.8,82.4,38.8,173.9,73.6c20.7,7.9,41.6,14.4,62.9,18.8c20.4,4.2,41.3,6.4,62.7,5.9
	c39.6-0.8,79.4-1.6,119-4.2c9.3-0.6,18.6-1.2,27.9-1.7c27.7-1.7,55.3-3.5,82.9-5.3c52.3-3.2,104.4-7.7,156.9-5.1
	c17.9,0.9,35.6,2.6,53,5.4c8.9,1.4,17.8,3.1,26.5,5.1c20.8,4.7,41.2,11,61.3,19.2c48.6,20,89,50.7,121.7,91.9
	c20.5,26,38.3,54.2,57.9,81c28.1,38.5,62.7,67.8,109.2,81c38.3,10.9,77.6,13.5,117.2,12.5c63.4-1.4,126.1-10.9,188.9-19.2
	c32.4-4.4,64.8-8.7,97.4-11.4c34.8-2.9,69.4-1.6,104.1,1.6c41.1,3.7,80.2,14.3,116,35.4c24.4,14.4,48.6,29.4,72.7,44.4
	c26.5,16.5,53.4,31.9,83.1,41.9c50.2,16.7,101,18.8,152.5,6.1c37.4-9.2,71.2-26.8,104.9-44.6c75.7-40.1,154-73.5,237.2-94.6
	c212.9-45.1,373.6-25.1,483.1,2.9c254,65.1,317.2,195.4,525.1,191.7c47.3-0.8,93-11.3,93-11.3
	C5023.5,1444.5,5082.4,1412.2,5119.9,1387.5z"/>
</svg>
