<svg xmlns="http://www.w3.org/2000/svg" xmlns:xlink="http://www.w3.org/1999/xlink" viewBox="0 0 5120 1760.7"><defs><style>.cls-1{fill:url(#linear-gradient);}.cls-2{fill:url(#linear-gradient-2);}.cls-3{fill:#fff;}.cls-4{fill:url(#linear-gradient-3);}.cls-5{fill:url(#linear-gradient-4);}.cls-6{fill:url(#linear-gradient-5);}</style><linearGradient id="linear-gradient" x1="328.23" y1="2008.51" x2="4791.77" y2="-568.51" gradientUnits="userSpaceOnUse"><stop offset="0.25" stop-color="#6c5ce7"/><stop offset="0.75" stop-color="#f178a5"/></linearGradient><linearGradient id="linear-gradient-2" x1="4480.72" y1="1032.9" x2="4480.72" y2="1440" gradientUnits="userSpaceOnUse"><stop offset="0" stop-color="#a29bfe"/><stop offset="1" stop-color="#74b9ff"/></linearGradient><linearGradient id="linear-gradient-3" x1="2561.51" y1="1032.9" x2="2561.51" y2="1458.95" xlink:href="#linear-gradient-2"/><linearGradient id="linear-gradient-4" x1="2999.24" y1="126.94" x2="2999.24" y2="1032.9" gradientUnits="userSpaceOnUse"><stop offset="0" stop-color="#00adee"/><stop offset="1" stop-color="#6c5ce7"/></linearGradient><linearGradient id="linear-gradient-5" x1="4480.36" y1="126.94" x2="4480.36" y2="1032.9" xlink:href="#linear-gradient-4"/></defs><g id="Layer_2" data-name="Layer 2"><g id="Layer_3" data-name="Layer 3"><g id="Layer_2-2" data-name="Layer 2"><rect class="cls-1" width="5120" height="1440"/><rect class="cls-2" x="3841.51" y="1032.9" width="1278.41" height="407.1"/><rect class="cls-3" x="0.08" y="885.04" width="1280" height="621.24"/><rect class="cls-3" x="3844.41" y="1278.11" width="1275.51" height="228.16"/></g><polyline id="reflection" class="cls-4" points="1281.51 1032.9 3841.51 1032.9 3841.51 1458.95 1281.51 1458.95"/><path id="blue" class="cls-5" d="M2147.28,1032.9s418.16,0,418.16-566.7c0-192,32.23-339.26,260-339.26,1201.43,0,1015.33,1.23,1015.33,1.23V1032.9"/><path class="cls-3" d="M3844.41,1278.11c-83.23,21.17-161.5,54.53-237.2,94.63-33.68,17.8-67.52,35.44-104.89,44.59q-77.24,19-152.53-6.1c-29.67-9.94-56.61-25.34-83.07-41.86-24.06-15.08-48.28-30-72.66-44.43-35.76-21.17-74.9-31.75-116-35.44-34.64-3.21-69.28-4.49-104.08-1.6-32.56,2.72-65,7-97.36,11.38-62.87,8.34-125.58,17.81-188.93,19.25-39.61,1-78.91-1.6-117.24-12.51-46.51-13.15-81.15-42.5-109.22-81-19.56-26.79-37.37-55-57.9-81-32.71-41.22-73.13-71.85-121.73-91.9-45.22-18.6-92.22-27.26-140.81-29.67-52.45-2.56-104.57,1.93-156.86,5.13q-55.34,3.62-110.82,7.06c-39.62,2.57-79.39,3.37-119,4.17-43.78,1-85.16-9.3-125.58-24.7-58.86-22.29-115.47-50.2-173.85-73.61-56.62-22.78-114.19-41.54-173.37-55.34a8.09,8.09,0,0,0-2.73-.16c0,231,0,638.33-.16,869.28,0,4.81.64,6.41,6.09,6.41q1277-.24,2553.94,0c5.29,0,6.1-1.28,6.1-6.25C3844.41,1654.37,3844.41,1378,3844.41,1278.11Z"/><rect class="cls-6" x="3840.79" y="126.94" width="1279.13" height="905.96"/></g></g></svg>