<?xml version="1.0" encoding="utf-8"?>
<!-- Generator: Adobe Illustrator 25.2.1, SVG Export Plug-In . SVG Version: 6.00 Build 0)  -->
<svg version="1.1" id="Layer_1" xmlns="http://www.w3.org/2000/svg" xmlns:xlink="http://www.w3.org/1999/xlink" x="0px" y="0px"
	 viewBox="0 0 2560 1440" style="enable-background:new 0 0 2560 1440;" xml:space="preserve">
<style type="text/css">
	.st0{fill:url(#SVGID_1_);stroke:#231F20;stroke-miterlimit:10;}
	.st1{fill:url(#reflection_1_);}
	.st2{fill:url(#blue_1_);}
	.st3{fill:#FFFFFF;}
</style>
<linearGradient id="SVGID_1_" gradientUnits="userSpaceOnUse" x1="8.2309" y1="1454.2562" x2="2551.769" y2="-14.2563">
	<stop  offset="0" style="stop-color:#6C5CE7"/>
	<stop  offset="1" style="stop-color:#F178A6"/>
</linearGradient>
<rect class="st0" width="2560" height="1440"/>
<linearGradient id="reflection_1_" gradientUnits="userSpaceOnUse" x1="1280" y1="1013.9539" x2="1280" y2="1440">
	<stop  offset="0" style="stop-color:#A29BFE"/>
	<stop  offset="1" style="stop-color:#74B9FF"/>
</linearGradient>
<polyline id="reflection" class="st1" points="0,1014 2560,1014 2560,1440 0,1440 "/>
<linearGradient id="blue_1_" gradientUnits="userSpaceOnUse" x1="1717.7301" y1="107.9925" x2="1717.7301" y2="1013.9539">
	<stop  offset="0" style="stop-color:#00ADEE"/>
	<stop  offset="1" style="stop-color:#6C5CE7"/>
</linearGradient>
<path id="blue" class="st2" d="M865.8,1014c0,0,418.2,0,418.2-566.7c0-192,32.2-339.3,260-339.3c1201.4,0,1015.3,1.2,1015.3,1.2
	V1014"/>
<path class="st3" d="M2562.9,1259.2c-83.2,21.2-161.5,54.5-237.2,94.6c-33.7,17.8-67.5,35.4-104.9,44.6
	c-51.5,12.7-102.3,10.6-152.5-6.1c-29.7-9.9-56.6-25.3-83.1-41.9c-24.1-15.1-48.3-30-72.7-44.4c-35.8-21.2-74.9-31.8-116-35.4
	c-34.6-3.2-69.3-4.5-104.1-1.6c-32.6,2.7-65,7.1-97.4,11.4c-62.9,8.3-125.6,17.8-188.9,19.2c-39.6,1-78.9-1.6-117.2-12.5
	c-46.5-13.2-81.2-42.5-109.2-81c-19.6-26.8-37.4-55-57.9-81c-32.7-41.2-73.1-71.9-121.7-91.9c-45.2-18.6-92.2-27.3-140.8-29.7
	c-52.4-2.6-104.6,1.9-156.9,5.1c-36.9,2.4-73.8,4.8-110.8,7.1c-39.6,2.6-79.4,3.4-119,4.2c-43.8,1-85.2-9.3-125.6-24.7
	c-58.9-22.3-115.5-50.2-173.9-73.6C116.6,898.8,59,880-0.2,866.2c-1-0.3-1.9-0.2-2.7-0.2c0,231,0,638.3-0.2,869.3
	c0,4.8,0.6,6.4,6.1,6.4c851.3-0.2,1702.6-0.2,2553.9,0c5.3,0,6.1-1.3,6.1-6.3C2562.9,1635.4,2562.9,1359.1,2562.9,1259.2z"/>
</svg>
