<svg xmlns="http://www.w3.org/2000/svg" viewBox="0 0 348.75 430.2"><defs><style>.cls-1{fill:#52c1c1;}.cls-2{fill:#6c5ce7;}.cls-2,.cls-4{opacity:0.1;}.cls-2,.cls-3,.cls-4,.cls-6,.cls-9{isolation:isolate;}.cls-3,.cls-6,.cls-8{fill:#fff;}.cls-3{opacity:0.2;}.cls-5{fill:#5bd7dd;}.cls-6{opacity:0.2;}.cls-7{fill:#2d3436;}.cls-9{fill:#f37575;opacity:0.75;}.cls-10{fill:none;stroke:#2d3436;stroke-linecap:round;stroke-linejoin:round;stroke-width:15px;}</style></defs><g id="Layer_2" data-name="Layer 2"><g id="design"><g id="jellyfish"><g id="Legs"><path class="cls-1" d="M207.3,413.62a21.51,21.51,0,0,1-3.56,7.17c-3.08,4.11-8.64,8.14-18.08,6.47C168,424.14,154.9,385.8,149.48,373a13.35,13.35,0,0,1-.61-1.85c-2.72-10.64,1.63-35.82,4-50.2h0c1-5.92,1.66-10,1.35-10.5-1.08-1.77,14.49-58.12,14.49-58.12L181,256l6.33,2-4.28,35.94s-2.66,22.95-2.92,48.08,21.84,56.3,24,57.73S207.3,413.62,207.3,413.62Z"/><path class="cls-2" d="M207.3,413.62a21.51,21.51,0,0,1-3.56,7.17C146.29,385,178.9,257.23,178.9,257.23L181,256l6.33,2-4.27,35.95s-2.67,22.95-2.93,48.07,21.84,56.3,24,57.74S207.3,413.62,207.3,413.62Z"/><path class="cls-3" d="M148.88,371.11h0c-2.72-10.64,1.62-35.81,4.05-50.2C153.18,321.62,166.91,359.89,148.88,371.11Z"/><path class="cls-1" d="M335.49,317.74c-1.2,6.5-7.35,11.33-8.56,12.52-1.62,1.59-14.14,6.6-31,5a71,71,0,0,1-16.42-3.6c-10-3.47-16.41-15.38-20.52-28.34-6.05-19.11-7.12-40.52-7.12-40.52L268,253.94l9.43-5.17s6.56,16.21,9,24,19.71,15,39.66,28.7C334.58,307.28,336.37,313,335.49,317.74Z"/><path class="cls-2" d="M335.49,317.74c-27.34-8.64-44.65-19.86-44.65-19.86-13.44-3.08-22.94-37.61-22.94-37.61l.07-6.33,9.43-5.17s6.56,16.21,9,24,19.71,15,39.66,28.7C334.58,307.28,336.37,313,335.49,317.74Z"/><path class="cls-3" d="M295.9,335.27a71,71,0,0,1-16.41-3.6c-10-3.47-16.41-15.38-20.53-28.34q9.18,8.13,18.64,16.3Q286.8,327.58,295.9,335.27Z"/><path class="cls-1" d="M77.7,288.12c-17.62,19.25-31.35,15.19-43.82,17.17A14.16,14.16,0,0,1,26.62,304c-13.8-5.6-33-26.84-24.55-34.89,5.52-5.25,13.86-8,22.66-9.64,7.32-1.36,14.89-2,21.46-2.59s13.91-6.64,19.88-13a127,127,0,0,0,12.29-15.45l14,.71L95.5,238l3.25,9.22A87.06,87.06,0,0,1,77.7,288.12Z"/><path id="Shadow" class="cls-4" d="M77.7,288.12c-6.81,7.4-13,11.36-18.74,13.54-4.59,1.72-13.58,5.58-25.08,3.63a42.57,42.57,0,0,1-23.73-13.07c5.35,2,24.62,8.52,44.06-.34C58.28,290,70.27,284,77.92,271.15c7-11.65,10.73-29.51,12.13-29.16.29,0,1.2,1.06,1.26,1h0l4.14-4.95,3.25,9.22S95.33,268.9,77.7,288.12Z"/><path class="cls-3" d="M52.88,263.21s-4.74,1.89-28.15-3.72h0c7.31-1.36,14.89-1.95,21.45-2.59s13.91-6.64,19.89-13C62.64,256.63,57.43,261.4,52.88,263.21Z"/><path class="cls-1" d="M222.3,332.19q-1.34,7.5-3.24,15c-15,59.2-50.12,81.3-50.12,81.3-10.24,2.24-17,2.13-21.33.54-16.09-5.9,2.13-32.26,2.13-32.26,9.44-4.21,16.49-12,21.68-20.59,10.88-18,13.73-39.55,13.73-39.55l16.69-94.22,19.62-17.49S232.05,277.81,222.3,332.19Z"/><path class="cls-4" d="M222.3,332.19q-1.34,7.5-3.24,15c-15,59.2-50.12,81.3-50.12,81.3-10.24,2.24-17,2.13-21.33.54,13.24-7.3,43.4-29.57,71.4-90.44C220.12,336.28,221.19,334.15,222.3,332.19Z"/><path class="cls-3" d="M171.44,376.18c10.88-18,13.73-39.54,13.73-39.54l1.93-10.87S201.19,370.19,171.44,376.18Z"/><path class="cls-1" d="M274.19,412.9c-1.2,6.08-4.9,12-14.94,11.32-20-1.46-28.3-21.8-38.79-31.69-2.63-2.49-4.59-6.51-6.08-11.31-4.43-14.15-4.67-35-5.88-41.49a29,29,0,0,1,0-5.51h0c1.2-21.75,12-93.4,12-93.4l10.26,5.5,7.3,3.9s-.54,24.73-1,33.15,2.8,37.46,2.46,49.2,11.07,40.12,11.07,40.12l23.56,27.94A35.36,35.36,0,0,1,274.19,412.9Z"/><path class="cls-3" d="M214.39,381.23c-4.44-14.16-4.68-35-5.89-41.5a29,29,0,0,1,0-5.51h0a39.32,39.32,0,0,1,9.92,17.4C222.24,366.3,216,378.36,214.39,381.23Z"/><path class="cls-4" d="M274.19,412.9c-60.14-33.19-47.5-140.75-43.51-166.58l7.3,3.9s-.53,24.73-1,33.15,2.8,37.46,2.47,49.2,11.07,40.12,11.07,40.12l23.56,27.94A35.36,35.36,0,0,1,274.19,412.9Z"/><path class="cls-1" d="M131.34,384.6c-7.52,12.1-15.5,18.62-21.1,23.12-6.54,5.25-11.42,7.77-17,8.77-3.48.6-9.74,1.69-14.61-1.89-6.49-4.78-6.06-14.66-5.92-16.6.68-9.92,7.15-15,19-29.15,1.41-1.7,3.42-4.11,5.64-6.86a171.66,171.66,0,0,0,12.09-16.67c5.2-8.52,5.89-13.63,7.28-24,.9-6.57,2.08-15.26,4.88-28.31,6.26-29.19,11.53-37.72,8.93-56.39a85.14,85.14,0,0,0-4.64-18.18l20,3.54L147,304l-1.41,37.5C144.35,351.12,142,367.5,131.34,384.6Z"/><path class="cls-4" d="M131.34,384.6c-7.52,12.1-15.5,18.62-21.1,23.12-6.54,5.25-11.42,7.77-17,8.77-3.48.6-9.74,1.69-14.61-1.89,73-11.61,63.06-160.91,60-193.86l7.26,1.28,1.2,82-1.4,37.5C144.35,351.12,142,367.5,131.34,384.6Z"/><path class="cls-3" d="M100.7,362.22c-.88,0-1.79-.08-1.79-.08-.56,0-1.09-.1-1.6-.18a171,171,0,0,0,12.06-16.64c5.2-8.52,5.89-13.63,7.28-24,.84-.74,1.33-1.15,1.33-1.15,1,3.32,5,18.51-2.67,30.64C110.15,358.94,101.91,362.23,100.7,362.22Z"/><path class="cls-1" d="M121.54,326.07C116.4,351,100,367.34,100,367.34s-26.67,32-44.7,31.23A26.7,26.7,0,0,1,43,395.36a18.13,18.13,0,0,1-8.76-10.66s0-17.83,22.37-27.84A60.32,60.32,0,0,0,76.74,342.1a64.24,64.24,0,0,0,11.13-16.76l13.62-36.46,19.11-51.19L140.15,221s-.34,1.94-.91,5.35C136.14,244.67,125.86,305,121.54,326.07Z"/><path class="cls-4" d="M121.54,326.07C116.4,351,100,367.34,100,367.34s-26.67,32-44.7,31.23A26.7,26.7,0,0,1,43,395.36l1.59-.78c81.5-39.39,84.6-158.63,84.6-160l10-8.2C136.14,244.67,125.86,305,121.54,326.07Z"/><path class="cls-3" d="M97.86,325.71c-4.83,15-13.49,17.65-21.15,16.39a64.29,64.29,0,0,0,11.13-16.77l13.62-36.46C103.4,295.18,103.86,307.09,97.86,325.71Z"/></g><g id="Body_Color" data-name="Body Color"><path class="cls-5" d="M343.5,215.91c-1.45,16.2-15.1,27.55-28.67,26.47-10.53-.85-20-9.13-23.22-20.63-20.55,96.24-77.87,27.18-77.87,27.18-46.62,54.51-70.77,3.19-77.34-14.81-1.26-3.44-1.87-5.65-1.87-5.65-6.12,8.35-12,13.87-17.45,17.16a29.19,29.19,0,0,1-7.2,3.14,22.36,22.36,0,0,1-15.5-1.27c-19.29-8.63-30.79-40.9-30.79-40.9-6,5.11-11.14,6.15-14.06,6.35-14.34,1-30.28-13.73-37.06-37.43a119.34,119.34,0,0,1,1-17.42C22.52,88.78,97.57-9,198.83.67q5.5.52,11.09,1.48A155.56,155.56,0,0,1,236,9C314.2,37,365.88,125.71,343.5,215.91Z"/><path id="Shadow-2" class="cls-4" d="M343.5,215.91h0c-1.45,16.2-15.1,27.55-28.67,26.47-10.52-.85-20-9.12-23.21-20.63h0C271.06,318,213.75,248.9,213.75,248.9c-50.72,59.33-74.86-6.75-78.67-18.65h0l6.21,7.54.19.27c1.23,2.36,10.84,19.57,29.05,21.66,16.13,1.86,33.13-8.82,40.54-26.7a3.75,3.75,0,0,1,6.44-.85l.75.91c1.63,2,15.36,18,31.83,16.24s27.23-22.47,28.63-25.14c5.52-10.51,8.42-15.73,10.63-16.45,4.36-1.43,9.62,3.11,11.8,5,4.13,3.57,3.85,5.92,7.5,9,4.15,3.54,10.07,5.29,12.54,4.67,12.09-3,20.78-79.92-13.06-143.3C288,45.37,258,22.29,236,9,314.2,37,365.88,125.71,343.5,215.91Z"/><path id="Light" class="cls-6" d="M117.08,245.6a44.17,44.17,0,0,1-22.7,1.9c-19.28-8.63-30.79-40.9-30.79-40.9-6,5.11-11.14,6.15-14.06,6.35-14.34,1-30.28-13.73-37.06-37.43a119.34,119.34,0,0,1,1-17.42C22.52,88.78,97.57-9,198.83.67a197.09,197.09,0,0,0-77,31.13c-47.41,32.31-65.18,73.85-73.61,93.92C41.72,141.18,35.68,161,43.75,176c1.46,2.73,4.85,8.82,11.48,10.69,5.44,1.51,10.68-.47,14.55-2.84a5,5,0,0,1,6.93,1.68,5.22,5.22,0,0,1,.65,1.65,90.43,90.43,0,0,0,6.72,20.47A93.77,93.77,0,0,0,117.08,245.6Z"/></g><g id="Face"><circle class="cls-7" cx="149.36" cy="87.73" r="28.22"/><circle class="cls-8" cx="153.67" cy="76.71" r="8.81"/><circle class="cls-7" cx="235.32" cy="102.88" r="28.22"/><circle class="cls-8" cx="242.97" cy="95.37" r="8.81"/><ellipse class="cls-9" cx="110.17" cy="127.89" rx="18.45" ry="35.91" transform="matrix(0.17, -0.98, 0.98, 0.17, -34.97, 214.06)"/><ellipse class="cls-9" cx="261.18" cy="154.87" rx="18.45" ry="35.91" transform="translate(63.13 385.03) rotate(-79.95)"/><path class="cls-10" d="M173.67,125s11,18.7,30.9,5.48"/></g></g></g></g></svg>
