<?xml version="1.0" encoding="utf-8"?>
<!-- Generator: Adobe Illustrator 25.2.1, SVG Export Plug-In . SVG Version: 6.00 Build 0)  -->
<svg version="1.1" id="Layer_1" xmlns="http://www.w3.org/2000/svg" xmlns:xlink="http://www.w3.org/1999/xlink" x="0px" y="0px"
	 viewBox="0 0 268.3 70.1" style="enable-background:new 0 0 268.3 70.1;" xml:space="preserve">
<style type="text/css">
	.st0{fill:#FFFFFF;}
	.st1{fill:#72FC8E;}
	.st2{fill:#97F8DD;}
	.st3{fill:#E4E2E4;}
	.st4{opacity:0.5;}
	.st5{opacity:0.5;fill:#FFFFFF;enable-background:new    ;}
	.st6{font-family:'MyriadPro-Bold';}
	.st7{font-size:36px;}
</style>
<g>
	<g id="Layer_2_1_">
		<g id="Layer_3">
			<ellipse class="st0" cx="47.3" cy="56.9" rx="47.3" ry="13.3"/>
			<path class="st1" d="M71.8,14.7C60.2-1.5,47.9,0,47.9,0S35.5-1.5,24,14.7S7,52.5,8.1,55.4S19,67.1,47.9,67.1s38.6-8.8,39.7-11.7
				S83.4,31,71.8,14.7z"/>
			<ellipse class="st2" cx="47.8" cy="54.3" rx="39.7" ry="12.8"/>
			<g>
				<path class="st3" d="M71.8,14.7C60.2-1.5,47.9,0,47.9,0c-1.4-0.1-2.8,0-4.2,0.3c4.7,1.2,11.9,4.5,18.9,14.3
					C74.2,31,79.7,52.6,78.5,55.5c-1,2.7-9.2,10.2-32.5,11.6h1.8c28.9,0,38.6-8.8,39.7-11.7S83.4,31,71.8,14.7z"/>
			</g>
			<g class="st4">
				<path class="st0" d="M28.4,53.4c-1-5.6-3.9-10.4,0.2-17.3c3.8-6.3,7.3-14.2,2.9-20.9c-1.4,1.5-2.7,3-3.9,4.7
					c-8.6,12-13.4,27.5-14.3,33.3c1.7,1.3,6,3.8,14.9,5.4C28.7,56.8,28.8,55.1,28.4,53.4z"/>
			</g>
			<ellipse transform="matrix(0.7407 -0.6718 0.6718 0.7407 2.7798 28.2669)" class="st5" cx="38" cy="10.5" rx="5.3" ry="2.7"/>
			<text transform="matrix(1 0 0 1 108.62 43.09)" class="st0 st6 st7">Jelly</text>
			<text transform="matrix(1 0 0 1 181.05 43.09)" class="st0 st6 st7">S</text>
			<text transform="matrix(1 0 0 1 199.95 43.09)" class="st0 st6 st7">w</text>
			<text transform="matrix(1 0 0 1 227.02 43.09)" class="st0 st6 st7">ap</text>
		</g>
	</g>
</g>
</svg>
