<svg xmlns="http://www.w3.org/2000/svg" viewBox="0 0 267.56 70.16"><defs><style>.cls-1,.cls-10,.cls-11,.cls-7,.cls-9{fill:#fff;}.cls-2{fill:#51aabf;}.cls-3{fill:#55bfd8;}.cls-4{opacity:0.3;}.cls-5{fill:#e4e1e3;}.cls-6,.cls-7{opacity:0.5;}.cls-10,.cls-11,.cls-7,.cls-8,.cls-9{isolation:isolate;}.cls-10,.cls-11,.cls-9{font-size:36px;font-family:MyriadPro-Bold, Myriad Pro;font-weight:700;}.cls-10{letter-spacing:-0.02em;}.cls-11{letter-spacing:-0.01em;}</style></defs><g id="Layer_2" data-name="Layer 2"><g id="content"><g id="logo"><g id="Layer_2-2" data-name="Layer 2"><g id="Layer_3" data-name="Layer 3"><ellipse class="cls-1" cx="47.34" cy="56.9" rx="47.34" ry="13.26"/><path class="cls-2" d="M71.78,14.77C60.19-1.47,47.87,0,47.87,0S35.55-1.47,24,14.77,7,52.49,8.15,55.46,19,67.18,47.87,67.18s38.6-8.76,39.73-11.72S83.36,31,71.78,14.77Z"/><ellipse class="cls-3" cx="47.76" cy="54.35" rx="39.71" ry="12.83"/><g class="cls-4"><path class="cls-5" d="M71.78,14.77C60.19-1.47,47.87,0,47.87,0a14.46,14.46,0,0,0-4.2.31C48.36,1.51,55.61,4.86,62.6,14.66,74.25,31,79.65,52.6,78.51,55.58c-1,2.71-9.18,10.23-32.45,11.58h1.81c28.9,0,38.6-8.76,39.73-11.72S83.36,31,71.78,14.77Z"/></g><g class="cls-6"><path class="cls-1" d="M28.4,53.41c-1-5.6-3.94-10.36.21-17.32,3.78-6.33,7.26-14.16,2.87-20.94a39.24,39.24,0,0,0-3.91,4.71C19,31.88,14.14,47.35,13.22,53.15c1.73,1.3,6,3.82,14.89,5.36A9.51,9.51,0,0,0,28.4,53.41Z"/></g><ellipse class="cls-7" cx="38.01" cy="10.57" rx="5.28" ry="2.68" transform="translate(2.75 28.28) rotate(-42.21)"/><g class="cls-8"><text class="cls-9" transform="translate(108.62 43.13)">Jelly</text><text class="cls-10" transform="translate(181.05 43.13)">S</text><text class="cls-11" transform="translate(199.95 43.13)">w</text><text class="cls-9" transform="translate(227.02 43.13)">ap</text></g></g></g></g></g></g></svg>
