<?xml version="1.0" encoding="utf-8"?>
<!-- Generator: Adobe Illustrator 25.2.1, SVG Export Plug-In . SVG Version: 6.00 Build 0)  -->
<svg version="1.1" id="Layer_1" xmlns="http://www.w3.org/2000/svg" xmlns:xlink="http://www.w3.org/1999/xlink" x="0px" y="0px"
	 viewBox="0 0 262.1 76.6" style="enable-background:new 0 0 262.1 76.6;" xml:space="preserve">
<style type="text/css">
	.st0{fill:#FFFFFF;stroke:#000000;stroke-width:0.1;stroke-miterlimit:10;}
	.st1{fill:#51AABF;}
	.st2{fill:#55BFD8;}
	.st3{opacity:0.3;}
	.st4{fill:#E4E2E4;}
	.st5{opacity:0.5;}
	.st6{fill:#FFFFFF;}
	.st7{opacity:0.5;fill:#FFFFFF;enable-background:new    ;}
	.st8{enable-background:new    ;}
</style>
<g>
	<g id="Layer_2_1_">
		<g id="Layer_4">
			<ellipse class="st0" cx="47.4" cy="56.9" rx="47.3" ry="13.3"/>
			<path class="st1" d="M71.8,14.7C60.2-1.5,47.9,0,47.9,0S35.6-1.5,24,14.7S7.1,52.5,8.2,55.4S19,67.1,47.9,67.1
				s38.6-8.8,39.7-11.7S83.4,31,71.8,14.7z"/>
			<ellipse class="st2" cx="47.8" cy="54.3" rx="39.7" ry="12.8"/>
			<g class="st3">
				<path class="st4" d="M71.8,14.7C60.2-1.5,47.9,0,47.9,0c-1.4-0.1-2.8,0-4.2,0.3c4.7,1.1,11.9,4.5,18.9,14.3
					c11.7,16.4,17,38,15.9,41c-1,2.7-9.2,10.2-32.5,11.6h1.8c28.9,0,38.6-8.8,39.7-11.7S83.4,31,71.8,14.7z"/>
			</g>
			<g class="st5">
				<path class="st6" d="M28.5,53.4c-1-5.6-3.9-10.4,0.2-17.3c3.8-6.3,7.3-14.2,2.9-20.9c-1.4,1.5-2.7,3-3.9,4.7
					c-8.6,12-13.4,27.5-14.4,33.3c1.7,1.3,6.1,3.8,14.9,5.4C28.7,56.8,28.8,55.1,28.5,53.4z"/>
			</g>
			<ellipse transform="matrix(0.7407 -0.6718 0.6718 0.7407 2.8269 28.2886)" class="st7" cx="38.1" cy="10.5" rx="5.3" ry="2.7"/>
			<g class="st8">
				<path d="M109.5,12.1h5.5v15.3c0,6.9-3.3,9.3-8.6,9.3c-1.3,0-2.9-0.2-4-0.6l0.6-4.4c0.8,0.3,1.7,0.4,2.8,0.4c2.3,0,3.7-1,3.7-4.8
					V12.1z"/>
				<path d="M123.6,29.3c0.2,2.3,2.4,3.3,5,3.3c1.9,0,3.4-0.3,4.9-0.7l0.7,3.7c-1.8,0.7-4,1.1-6.4,1.1c-6,0-9.4-3.5-9.4-9
					c0-4.5,2.8-9.4,8.9-9.4c5.7,0,7.8,4.4,7.8,8.8c0,0.9-0.1,1.8-0.2,2.2H123.6z M130,25.5c0-1.3-0.6-3.6-3.1-3.6
					c-2.3,0-3.2,2.1-3.4,3.6H130z"/>
				<path d="M138.4,10.8h5.5v25.6h-5.5V10.8z"/>
				<path d="M148.3,10.8h5.5v25.6h-5.5V10.8z"/>
				<path d="M162.3,18.7l2.6,8.6c0.3,1,0.6,2.3,0.9,3.3h0.1c0.3-0.9,0.5-2.3,0.8-3.3l2.2-8.6h5.9l-4.1,11.6c-2.5,7-4.2,9.8-6.2,11.6
					c-1.9,1.7-3.9,2.2-5.3,2.4l-1.2-4.6c0.7-0.1,1.5-0.4,2.4-0.9c0.8-0.4,1.7-1.3,2.3-2.2c0.2-0.3,0.3-0.5,0.3-0.8
					c0-0.2,0-0.5-0.3-0.9l-6.4-16.1H162.3z"/>
			</g>
			<g class="st8">
				<path d="M177.3,30.7c1.5,0.8,3.7,1.5,6.1,1.5c2.5,0,3.9-1,3.9-2.6c0-1.5-1.2-2.4-4.1-3.4c-4-1.4-6.7-3.6-6.7-7.2
					c0-4.1,3.5-7.3,9.2-7.3c2.7,0,4.8,0.6,6.2,1.2l-1.2,4.4c-1-0.5-2.7-1.2-5.1-1.2c-2.4,0-3.5,1.1-3.5,2.3c0,1.5,1.4,2.2,4.5,3.4
					c4.3,1.6,6.3,3.8,6.3,7.2c0,4.1-3.1,7.5-9.8,7.5c-2.8,0-5.5-0.7-6.9-1.5L177.3,30.7z"/>
			</g>
			<g class="st8">
				<path d="M199.7,18.7l1.4,7.2c0.4,1.8,0.7,3.8,1,5.8h0.1c0.4-2,0.9-4,1.3-5.8l1.9-7.2h4.3l1.8,7c0.5,2,0.9,4,1.3,6h0.1
					c0.3-2,0.6-4,1-6l1.5-7h5.4l-5.4,17.6h-5.1l-1.7-6.2c-0.4-1.7-0.8-3.3-1.1-5.5h-0.1c-0.3,2.2-0.7,3.8-1.2,5.5l-1.8,6.2h-5.1
					l-5.1-17.6H199.7z"/>
			</g>
			<g class="st8">
				<path d="M233,36.3l-0.3-1.8h-0.1c-1.2,1.4-3,2.2-5,2.2c-3.6,0-5.7-2.6-5.7-5.4c0-4.6,4.1-6.8,10.3-6.7v-0.3
					c0-0.9-0.5-2.3-3.2-2.3c-1.8,0-3.7,0.6-4.9,1.3l-1-3.5c1.2-0.7,3.6-1.5,6.8-1.5c5.9,0,7.7,3.5,7.7,7.6v6.1
					c0,1.7,0.1,3.3,0.3,4.3H233z M232.3,28c-2.9,0-5.1,0.6-5.1,2.8c0,1.4,0.9,2.1,2.2,2.1c1.4,0,2.5-0.9,2.8-2
					c0.1-0.3,0.1-0.6,0.1-0.9V28z"/>
				<path d="M242,24.6c0-2.3-0.1-4.3-0.1-5.9h4.8l0.3,2.4h0.1c1.3-1.9,3.3-2.8,5.9-2.8c3.9,0,7.3,3.3,7.3,9c0,6.4-4.1,9.4-8,9.4
					c-2.1,0-3.8-0.9-4.6-2h-0.1v8.7H242V24.6z M247.4,28.8c0,0.4,0,0.8,0.1,1.2c0.4,1.5,1.6,2.6,3.2,2.6c2.4,0,3.8-2,3.8-5
					c0-2.8-1.3-4.9-3.7-4.9c-1.5,0-2.9,1.2-3.3,2.8c-0.1,0.3-0.1,0.6-0.1,1V28.8z"/>
			</g>
			<g class="st8">
				<path d="M151.4,60.3c-0.4,0.2-1.3,0.4-2.5,0.4c-2.7,0-4.7-1.7-4.7-4.8c0-3,2-5,4.9-5c1.2,0,1.9,0.3,2.2,0.4l-0.3,1
					c-0.5-0.2-1.1-0.4-1.9-0.4c-2.2,0-3.7,1.4-3.7,3.9c0,2.3,1.3,3.8,3.6,3.8c0.7,0,1.5-0.2,2-0.4L151.4,60.3z"/>
			</g>
			<g class="st8">
				<path d="M156.5,60.7l-0.1-0.9h0c-0.4,0.5-1.1,1-2.1,1c-1.4,0-2.1-1-2.1-1.9c0-1.6,1.5-2.5,4.1-2.5v-0.1c0-0.6-0.2-1.6-1.5-1.6
					c-0.6,0-1.3,0.2-1.8,0.5l-0.3-0.8c0.6-0.4,1.4-0.6,2.2-0.6c2.1,0,2.6,1.4,2.6,2.8V59c0,0.6,0,1.2,0.1,1.6H156.5z M156.3,57.2
					c-1.3,0-2.9,0.2-2.9,1.5c0,0.8,0.5,1.2,1.2,1.2c0.9,0,1.4-0.6,1.6-1.1c0-0.1,0.1-0.3,0.1-0.4V57.2z"/>
			</g>
			<g class="st8">
				<path d="M159.5,56c0-0.8,0-1.5-0.1-2.1h1.1l0,1.3h0.1c0.3-0.9,1.1-1.5,1.9-1.5c0.1,0,0.2,0,0.3,0v1.2c-0.1,0-0.3,0-0.4,0
					c-0.9,0-1.5,0.7-1.7,1.6c0,0.2-0.1,0.4-0.1,0.6v3.6h-1.2V56z"/>
			</g>
			<g class="st8">
				<path d="M169.8,50.7v8.2c0,0.6,0,1.3,0.1,1.8h-1.1l-0.1-1.2h0c-0.4,0.8-1.2,1.3-2.3,1.3c-1.6,0-2.9-1.4-2.9-3.4
					c0-2.3,1.4-3.6,3-3.6c1,0,1.7,0.5,2,1h0v-4H169.8z M168.6,56.6c0-0.2,0-0.4-0.1-0.5c-0.2-0.8-0.9-1.4-1.8-1.4
					c-1.3,0-2,1.1-2,2.6c0,1.4,0.7,2.5,2,2.5c0.8,0,1.6-0.5,1.8-1.5c0-0.2,0.1-0.3,0.1-0.5V56.6z"/>
				<path d="M175.6,60.7l-0.1-0.9h0c-0.4,0.5-1.1,1-2.1,1c-1.4,0-2.1-1-2.1-1.9c0-1.6,1.5-2.5,4.1-2.5v-0.1c0-0.6-0.2-1.6-1.5-1.6
					c-0.6,0-1.3,0.2-1.8,0.5l-0.3-0.8c0.6-0.4,1.4-0.6,2.2-0.6c2.1,0,2.6,1.4,2.6,2.8V59c0,0.6,0,1.2,0.1,1.6H175.6z M175.4,57.2
					c-1.3,0-2.9,0.2-2.9,1.5c0,0.8,0.5,1.2,1.2,1.2c0.9,0,1.4-0.6,1.6-1.1c0-0.1,0.1-0.3,0.1-0.4V57.2z"/>
				<path d="M178.6,55.7c0-0.7,0-1.3-0.1-1.8h1.1l0.1,1.1h0c0.3-0.6,1.1-1.3,2.2-1.3c0.9,0,2.4,0.6,2.4,2.9v4h-1.2v-3.9
					c0-1.1-0.4-2-1.6-2c-0.8,0-1.4,0.6-1.7,1.3c-0.1,0.2-0.1,0.4-0.1,0.6v4.1h-1.2V55.7z"/>
				<path d="M192.5,57.2c0,2.5-1.7,3.6-3.4,3.6c-1.8,0-3.2-1.3-3.2-3.5c0-2.3,1.5-3.6,3.4-3.6C191.2,53.7,192.5,55.1,192.5,57.2z
					 M187.1,57.3c0,1.5,0.9,2.6,2.1,2.6c1.2,0,2.1-1.1,2.1-2.6c0-1.1-0.6-2.6-2-2.6C187.7,54.6,187.1,56,187.1,57.3z"/>
				<path d="M197.1,51.3c0.7-0.1,1.6-0.2,2.6-0.2c1.8,0,3,0.4,3.8,1.2c0.8,0.8,1.3,1.9,1.3,3.4c0,1.5-0.5,2.8-1.4,3.7
					c-0.9,0.9-2.3,1.4-4.2,1.4c-0.9,0-1.6,0-2.2-0.1V51.3z M198.3,59.7c0.3,0.1,0.8,0.1,1.2,0.1c2.6,0,4-1.5,4-4
					c0-2.2-1.2-3.6-3.8-3.6c-0.6,0-1.1,0.1-1.4,0.1V59.7z"/>
				<path d="M211.3,56.2h-3.7v3.4h4.1v1h-5.3v-9.4h5.1v1h-3.9v3h3.7V56.2z"/>
				<path d="M218.4,60.7l-1.2-2.1c-0.5-0.8-0.8-1.3-1.1-1.9h0c-0.3,0.5-0.5,1.1-1,1.9l-1.1,2.1h-1.4l2.9-4.8l-2.8-4.7h1.4l1.2,2.2
					c0.3,0.6,0.6,1.1,0.9,1.6h0c0.3-0.6,0.5-1,0.9-1.6l1.3-2.2h1.4l-2.9,4.6l2.9,4.8H218.4z"/>
			</g>
		</g>
	</g>
</g>
</svg>
