<?xml version="1.0" encoding="utf-8"?>
<!-- Generator: Adobe Illustrator 25.2.1, SVG Export Plug-In . SVG Version: 6.00 Build 0)  -->
<svg version="1.1" id="Layer_1" xmlns="http://www.w3.org/2000/svg" xmlns:xlink="http://www.w3.org/1999/xlink" x="0px" y="0px"
	 viewBox="0 0 267.6 70.2" style="enable-background:new 0 0 267.6 70.2;" xml:space="preserve">
<style type="text/css">
	.st0{fill:#FFFFFF;}
	.st1{fill:#51AABF;}
	.st2{fill:#55BFD8;}
	.st3{opacity:0.3;}
	.st4{fill:#E4E1E3;}
	.st5{opacity:0.5;}
	.st6{opacity:0.5;fill:#FFFFFF;enable-background:new    ;}
	.st7{enable-background:new    ;}
</style>
<g id="Layer_2_1_">
	<g id="content">
		<g id="logo">
			<g id="Layer_2-2">
				<g id="Layer_3">
					<ellipse class="st0" cx="47.3" cy="56.9" rx="47.3" ry="13.3"/>
					<path class="st1" d="M71.8,14.8C60.2-1.5,47.9,0,47.9,0S35.5-1.5,24,14.8S7,52.5,8.1,55.5S19,67.2,47.9,67.2
						s38.6-8.8,39.7-11.7S83.4,31,71.8,14.8z"/>
					<ellipse class="st2" cx="47.8" cy="54.3" rx="39.7" ry="12.8"/>
					<g class="st3">
						<path class="st4" d="M71.8,14.8C60.2-1.5,47.9,0,47.9,0c-1.4-0.1-2.8,0-4.2,0.3c4.7,1.2,11.9,4.6,18.9,14.3
							C74.2,31,79.7,52.6,78.5,55.6c-1,2.7-9.2,10.2-32.5,11.6h1.8c28.9,0,38.6-8.8,39.7-11.7S83.4,31,71.8,14.8z"/>
					</g>
					<g class="st5">
						<path class="st0" d="M28.4,53.4c-1-5.6-3.9-10.4,0.2-17.3c3.8-6.3,7.3-14.2,2.9-20.9c-1.4,1.5-2.7,3-3.9,4.7
							c-8.6,12-13.4,27.5-14.3,33.3c1.7,1.3,6,3.8,14.9,5.4C28.7,56.9,28.8,55.1,28.4,53.4z"/>
					</g>
					<ellipse transform="matrix(0.7407 -0.6718 0.6718 0.7407 2.7523 28.2751)" class="st6" cx="38" cy="10.6" rx="5.3" ry="2.7"/>
					<g>
						<g class="st7">
							<path class="st0" d="M115.7,18.9h5.5v15.3c0,6.9-3.3,9.3-8.6,9.3c-1.3,0-2.9-0.2-4-0.6l0.6-4.4c0.8,0.3,1.7,0.4,2.8,0.4
								c2.3,0,3.7-1,3.7-4.8V18.9z"/>
							<path class="st0" d="M129.8,36.1c0.2,2.3,2.4,3.3,5,3.3c1.9,0,3.4-0.3,4.9-0.7l0.7,3.7c-1.8,0.7-4,1.1-6.4,1.1
								c-6,0-9.4-3.5-9.4-9c0-4.5,2.8-9.4,8.9-9.4c5.7,0,7.8,4.4,7.8,8.8c0,0.9-0.1,1.8-0.2,2.2H129.8z M136.3,32.3
								c0-1.3-0.6-3.6-3.1-3.6c-2.3,0-3.2,2.1-3.4,3.6H136.3z"/>
							<path class="st0" d="M144.6,17.6h5.5v25.6h-5.5V17.6z"/>
							<path class="st0" d="M154.5,17.6h5.5v25.6h-5.5V17.6z"/>
							<path class="st0" d="M168.5,25.5l2.6,8.6c0.3,1,0.6,2.3,0.9,3.3h0.1c0.3-0.9,0.5-2.3,0.8-3.3l2.2-8.6h5.9l-4.1,11.6
								c-2.5,7-4.2,9.8-6.2,11.6c-1.9,1.7-3.9,2.2-5.3,2.4l-1.2-4.6c0.7-0.1,1.5-0.4,2.4-0.9c0.8-0.4,1.7-1.3,2.3-2.2
								c0.2-0.3,0.3-0.5,0.3-0.8c0-0.2,0-0.5-0.3-0.9l-6.4-16.1H168.5z"/>
						</g>
						<g class="st7">
							<path class="st0" d="M183.6,37.5c1.5,0.8,3.7,1.5,6.1,1.5c2.5,0,3.9-1,3.9-2.6c0-1.5-1.2-2.4-4.1-3.4c-4-1.4-6.7-3.6-6.7-7.2
								c0-4.1,3.5-7.3,9.2-7.3c2.7,0,4.8,0.6,6.2,1.2l-1.2,4.4c-1-0.5-2.7-1.2-5.1-1.2s-3.5,1.1-3.5,2.3c0,1.5,1.4,2.2,4.5,3.4
								c4.3,1.6,6.3,3.8,6.3,7.2c0,4.1-3.1,7.5-9.8,7.5c-2.8,0-5.5-0.7-6.9-1.5L183.6,37.5z"/>
						</g>
						<g class="st7">
							<path class="st0" d="M205.9,25.5l1.4,7.2c0.4,1.8,0.7,3.8,1,5.8h0.1c0.4-2,0.9-4,1.3-5.8l1.9-7.2h4.3l1.8,7
								c0.5,2,0.9,4,1.3,6h0.1c0.3-2,0.6-4,1-6l1.5-7h5.4l-5.4,17.6h-5.1l-1.7-6.2c-0.4-1.7-0.8-3.3-1.1-5.5h-0.1
								c-0.3,2.2-0.7,3.8-1.2,5.5l-1.8,6.2h-5.1l-5.1-17.6H205.9z"/>
						</g>
						<g class="st7">
							<path class="st0" d="M239.2,43.1l-0.3-1.8h-0.1c-1.2,1.4-3,2.2-5,2.2c-3.6,0-5.7-2.6-5.7-5.4c0-4.6,4.1-6.8,10.3-6.7v-0.3
								c0-0.9-0.5-2.3-3.2-2.3c-1.8,0-3.7,0.6-4.9,1.3l-1-3.5c1.2-0.7,3.6-1.5,6.8-1.5c5.9,0,7.7,3.5,7.7,7.6v6.1
								c0,1.7,0.1,3.3,0.3,4.3H239.2z M238.6,34.8c-2.9,0-5.1,0.6-5.1,2.8c0,1.4,0.9,2.1,2.2,2.1c1.4,0,2.5-0.9,2.8-2
								c0.1-0.3,0.1-0.6,0.1-0.9V34.8z"/>
							<path class="st0" d="M248.2,31.4c0-2.3-0.1-4.3-0.1-5.9h4.8l0.3,2.4h0.1c1.3-1.9,3.3-2.8,5.9-2.8c3.9,0,7.3,3.3,7.3,9
								c0,6.4-4.1,9.4-8,9.4c-2.1,0-3.8-0.9-4.6-2h-0.1v8.7h-5.5V31.4z M253.7,35.6c0,0.4,0,0.8,0.1,1.2c0.4,1.5,1.6,2.6,3.2,2.6
								c2.4,0,3.8-2,3.8-5c0-2.8-1.3-4.9-3.7-4.9c-1.5,0-2.9,1.2-3.3,2.8c-0.1,0.3-0.1,0.6-0.1,1V35.6z"/>
						</g>
					</g>
				</g>
			</g>
		</g>
	</g>
</g>
</svg>
