<?xml version="1.0" encoding="utf-8"?>
<!-- Generator: Adobe Illustrator 25.2.1, SVG Export Plug-In . SVG Version: 6.00 Build 0)  -->
<svg version="1.1" id="Layer_1" xmlns="http://www.w3.org/2000/svg" xmlns:xlink="http://www.w3.org/1999/xlink" x="0px" y="0px"
	 viewBox="0 0 262.1 76.6" style="enable-background:new 0 0 262.1 76.6;" xml:space="preserve">
<style type="text/css">
	.st0{fill:#FFFFFF;stroke:#000000;stroke-width:0.1;stroke-miterlimit:10;}
	.st1{fill:#51AABF;}
	.st2{fill:#55BFD8;}
	.st3{opacity:0.3;}
	.st4{fill:#E4E2E4;}
	.st5{opacity:0.5;}
	.st6{fill:#FFFFFF;}
	.st7{opacity:0.5;fill:#FFFFFF;enable-background:new    ;}
	.st8{font-family:'MyriadPro-Bold';}
	.st9{font-size:36px;}
	.st10{font-family:'MyriadPro-Regular';}
	.st11{font-size:14px;}
</style>
<g>
	<g id="Layer_2_1_">
		<g id="Layer_4">
			<ellipse class="st0" cx="47.4" cy="56.9" rx="47.3" ry="13.3"/>
			<path class="st1" d="M71.8,14.7C60.2-1.5,47.9,0,47.9,0S35.6-1.5,24,14.7S7.1,52.5,8.2,55.4S19,67.1,47.9,67.1
				s38.6-8.8,39.7-11.7S83.4,31,71.8,14.7z"/>
			<ellipse class="st2" cx="47.8" cy="54.3" rx="39.7" ry="12.8"/>
			<g class="st3">
				<path class="st4" d="M71.8,14.7C60.2-1.5,47.9,0,47.9,0c-1.4-0.1-2.8,0-4.2,0.3c4.7,1.1,11.9,4.5,18.9,14.3
					c11.7,16.4,17,38,15.9,41c-1,2.7-9.2,10.2-32.5,11.6h1.8c28.9,0,38.6-8.8,39.7-11.7S83.4,31,71.8,14.7z"/>
			</g>
			<g class="st5">
				<path class="st6" d="M28.5,53.4c-1-5.6-3.9-10.4,0.2-17.3c3.8-6.3,7.3-14.2,2.9-20.9c-1.4,1.5-2.7,3-3.9,4.7
					c-8.6,12-13.4,27.5-14.4,33.3c1.7,1.3,6.1,3.8,14.9,5.4C28.7,56.8,28.8,55.1,28.5,53.4z"/>
			</g>
			<ellipse transform="matrix(0.7407 -0.6718 0.6718 0.7407 2.7877 28.3002)" class="st7" cx="38.1" cy="10.5" rx="5.3" ry="2.7"/>
			<text transform="matrix(1 0 0 1 102.36 36.34)" class="st8 st9">Jelly</text>
			<text transform="matrix(1 0 0 1 174.79 36.34)" class="st8 st9">S</text>
			<text transform="matrix(1 0 0 1 193.6899 36.34)" class="st8 st9">w</text>
			<text transform="matrix(1 0 0 1 220.76 36.34)" class="st8 st9">ap</text>
			<text transform="matrix(1 0 0 1 143.71 60.65)" class="st10 st11">C</text>
			<text transform="matrix(1 0 0 1 151.73 60.65)" class="st10 st11">a</text>
			<text transform="matrix(1 0 0 1 158.48 60.65)" class="st10 st11">r</text>
			<text transform="matrix(1 0 0 1 162.92 60.65)" class="st10 st11">dano DEX</text>
		</g>
	</g>
</g>
</svg>
