<svg xmlns="http://www.w3.org/2000/svg" viewBox="0 0 254.08 76.61"><defs><style>.cls-1{isolation:isolate;}.cls-2,.cls-8,.cls-9{fill:#fff;}.cls-2{stroke:#000;stroke-miterlimit:10;stroke-width:0.1px;}.cls-3{fill:#72fc8e;}.cls-4{fill:#97f8dd;}.cls-5{mix-blend-mode:multiply;}.cls-6{fill:#e4e2e4;}.cls-7,.cls-9{opacity:0.5;}.cls-10{fill:#231f20;}.cls-11{fill:#fd79a8;}.cls-12{fill:#ff7675;}.cls-13{font-size:36px;font-family:MyriadPro-Bold, Myriad Pro;font-weight:700;}.cls-14{letter-spacing:-0.02em;}.cls-15{letter-spacing:-0.01em;}.cls-16{font-size:14px;font-family:MyriadPro-Regular, Myriad Pro;}.cls-17{letter-spacing:-0.01em;}.cls-18{letter-spacing:-0.01em;}</style></defs><title>Black</title><g class="cls-1"><g id="Layer_2" data-name="Layer 2"><g id="Layer_4" data-name="Layer 4"><ellipse class="cls-2" cx="47.39" cy="56.86" rx="47.34" ry="13.26"/><path class="cls-3" d="M71.83,14.73C60.24-1.51,47.92,0,47.92,0S35.6-1.51,24,14.73,7.07,52.45,8.2,55.42,19,67.14,47.92,67.14s38.6-8.76,39.73-11.72S83.41,31,71.83,14.73Z"/><ellipse class="cls-4" cx="47.81" cy="54.31" rx="39.71" ry="12.83"/><g class="cls-5"><path class="cls-6" d="M71.83,14.73C60.24-1.51,47.92,0,47.92,0a14.64,14.64,0,0,0-4.2.31c4.69,1.12,11.94,4.47,18.93,14.27C74.3,31,79.7,52.56,78.56,55.54c-1,2.71-9.18,10.23-32.45,11.58l1.81,0c28.9,0,38.6-8.76,39.73-11.72S83.41,31,71.83,14.73Z"/></g><g class="cls-7"><path class="cls-8" d="M28.45,53.37c-1-5.6-3.94-10.36.21-17.32,3.78-6.33,7.26-14.16,2.87-20.94a39.06,39.06,0,0,0-3.91,4.71c-8.57,12-13.43,27.49-14.35,33.29,1.73,1.3,6.05,3.82,14.89,5.36A9.5,9.5,0,0,0,28.45,53.37Z"/></g><ellipse class="cls-9" cx="38.06" cy="10.53" rx="5.28" ry="2.68" transform="translate(2.79 28.31) rotate(-42.21)"/><circle class="cls-10" cx="38.1" cy="28.96" r="3.27"/><circle class="cls-11" cx="33.8" cy="36.62" r="2.79"/><circle class="cls-11" cx="63.77" cy="36.88" r="2.79"/><path d="M59.19,31.51h0a4,4,0,0,1-4-4,.73.73,0,0,1,.73-.72h0a.72.72,0,0,1,.72.73,2.55,2.55,0,0,0,2.53,2.57h0a2.55,2.55,0,0,0,2.54-2.52.73.73,0,0,1,.73-.72h0a.71.71,0,0,1,.72.73A4,4,0,0,1,59.19,31.51Z"/><path class="cls-10" d="M54.79,32.38a6.09,6.09,0,1,1-12.17-.11Z"/><ellipse class="cls-12" cx="48.66" cy="36.89" rx="1.52" ry="4.02" transform="translate(11.34 85.22) rotate(-89.49)"/><text class="cls-13" transform="translate(94.36 36.34)">Jelly<tspan class="cls-14" x="72.43" y="0">S</tspan><tspan class="cls-15" x="91.33" y="0">w</tspan><tspan x="118.4" y="0">ap</tspan></text><text class="cls-16" transform="translate(135.71 60.65)"><tspan class="cls-17">C</tspan><tspan x="8.02" y="0">a</tspan><tspan class="cls-18" x="14.77" y="0">r</tspan><tspan x="19.21" y="0">dano DEX</tspan></text></g></g></g></svg>